<?xml version="1.0" encoding="UTF-8" standalone="no"?>
<!-- Created with Inkscape (http://www.inkscape.org/) -->

<svg
   width="1000"
   height="1000"
   viewBox="0 0 264.58333 264.58333"
   version="1.1"
   id="svg1"
   xml:space="preserve"
   inkscape:version="1.3.2 (091e20e, 2023-11-25)"
   sodipodi:docname="font.svg"
   xmlns:inkscape="http://www.inkscape.org/namespaces/inkscape"
   xmlns:sodipodi="http://sodipodi.sourceforge.net/DTD/sodipodi-0.dtd"
   xmlns="http://www.w3.org/2000/svg"
   xmlns:svg="http://www.w3.org/2000/svg"><sodipodi:namedview
     id="namedview1"
     pagecolor="#ffffff"
     bordercolor="#000000"
     borderopacity="0.25"
     inkscape:showpageshadow="2"
     inkscape:pageopacity="0.0"
     inkscape:pagecheckerboard="0"
     inkscape:deskcolor="#d1d1d1"
     inkscape:document-units="mm"
     showgrid="false"
     inkscape:zoom="0.5709058"
     inkscape:cx="511.46792"
     inkscape:cy="592.91743"
     inkscape:window-width="1440"
     inkscape:window-height="900"
     inkscape:window-x="0"
     inkscape:window-y="0"
     inkscape:window-maximized="0"
     inkscape:current-layer="layer1"><inkscape:grid
       id="grid1"
       units="mm"
       originx="0"
       originy="0"
       spacingx="0.99999999"
       spacingy="0.99999999"
       empcolor="#0099e5"
       empopacity="0.30196078"
       color="#0099e5"
       opacity="0.14901961"
       empspacing="5"
       dotted="false"
       gridanglex="30"
       gridanglez="30"
       visible="false" /></sodipodi:namedview><defs
     id="defs1" /><g
     inkscape:label="Layer 1"
     inkscape:groupmode="layer"
     id="layer1"
     style="display:inline"><path
       style="display:inline;fill:#000000;stroke-width:0.299339;stroke-linecap:round;stroke-linejoin:round;stroke-opacity:0.575949"
       d="m 149.64835,51.66052 c 0,0 7.58886,-8.027536 14.42611,-13.666839 6.83725,-5.639303 9.36431,-6.327239 9.36431,-6.327239 l 0.25309,135.402938 59.22296,-12.40139 c 0,0 1.72913,1.47388 -1.77162,12.40139 -3.50074,10.9275 -5.31488,13.41375 -5.31488,13.41375 l -76.17997,16.957 z"
       id="path2"
       sodipodi:nodetypes="czccczccc" /><path
       style="display:inline;fill:#000000;stroke-width:0.299339;stroke-linecap:round;stroke-linejoin:round;stroke-opacity:0.575949"
       d="m 156.82685,218.76803 75.79385,-15.61418 c 0,0 0.64297,2.45546 -1.30119,11.38535 -1.94415,8.92988 -4.87943,14.63829 -4.87943,14.63829 l -76.44443,15.61418 c 0,0 -0.0565,-3.74569 0.97589,-11.71064 1.03237,-7.96494 5.85531,-14.313 5.85531,-14.313 z"
       id="path4"
       sodipodi:nodetypes="cczcczc" /></g><g
     inkscape:groupmode="layer"
     id="layer2"
     inkscape:label="Layer 2"
     style="display:inline"><path
       style="fill:#000000;stroke-width:0.299339;stroke-linecap:round;stroke-linejoin:round;stroke-opacity:0.575949"
       d="m 102.58196,40.095987 c 0,0 3.53724,-5.39757 11.05552,-11.907277 9.55592,-8.274005 13.12037,-8.397044 13.12037,-8.397044 l -0.52481,163.217544 c 0,0 -9.51818,17.49444 -16.26927,24.66631 -1.79861,1.91071 -6.29778,4.72334 -6.29778,4.72334 L 31.241491,227.6185 c 0,0 0.06517,-7.74719 1.772316,-14.10974 2.135768,-7.96001 5.575095,-11.60621 5.575095,-11.60621 l 65.077088,-13.12038 -1.04963,-30.9641 -0.52482,-24.66632 z"
       id="path1"
       sodipodi:nodetypes="csccaccsccccc" /><path
       style="fill:#000000;stroke-width:0.299339;stroke-linecap:round;stroke-linejoin:round;stroke-opacity:0.575949"
       d="M 49.362753,145.42852 232.67815,106.244 c 0,0 0.53618,0.94242 -1.36293,9.88132 -2.18521,10.28546 -5.45177,15.6738 -5.45177,15.6738 L 42.121298,171.06967 c 0,0 -0.540491,-3.90655 1.70702,-12.77589 2.247511,-8.86935 5.534435,-12.86526 5.534435,-12.86526 z"
       id="path3"
       sodipodi:nodetypes="ccscczc" /></g></svg>
